<svg preserveAspectRatio="xMidYMid meet" viewBox="0 0 299.484 299.484" height="50" width="50" role="presentation" aria-hidden="true">
    <g>
        <path fill="#008C4E" d="M149.738 299.484c82.701 0 149.746-67.043 149.746-149.741C299.484 67.042 232.439 0 149.738 0 67.04 0 0 67.042 0 149.743c0 82.698 67.04 149.741 149.738 149.741zm.933-30.348c65.939 0 119.395-53.454 119.395-119.391 0-65.938-53.456-119.392-119.395-119.392-65.936 0-119.387 53.454-119.387 119.392 0 65.937 53.451 119.391 119.387 119.391z" clip-rule="evenodd" fill-rule="evenodd" data-color="1"></path>
        <path fill="#008C4E" d="M51.563 199.413h13.554c13.945 0 23.678-10.632 23.678-24.379 0-13.951-9.473-24.521-23.608-24.521H51.563v48.9zm9.534-40.6h1.558c10.83 0 16.279 5.519 16.279 16.148 0 9.668-4.542 16.149-16.28 16.149h-1.557v-32.297z" clip-rule="evenodd" fill-rule="evenodd" data-color="1"></path>
        <path fill="#008C4E" d="M119.044 158.816v-8.303H93.75v48.902h25.294v-8.303h-15.76v-13.23h15.177v-8.303h-15.177v-10.763h15.76z" data-color="1"></path>
        <path fill="#008C4E" d="m202.734 199.466 18.319-47.12a4.805 4.805 0 0 1 4.481-3.078c1.887 0 3.731 1.094 4.476 3.078l17.732 47.12h-10.176l-3.766-10.311h-16.989l-4.02 10.311h-10.057zm16.796-18.095 5.937-17.706h.129l5.543 17.706H219.53z" clip-rule="evenodd" fill-rule="evenodd" data-color="1"></path>
        <path fill="#008C4E" d="M137.4 171.136h-.131v-20.623h-9.535v48.897h9.535v-21.983h.131l15.632 21.983h12.259l-19.588-26.33 18.549-22.567h-11.74L137.4 171.136z" data-color="1"></path>
        <path fill="#008C4E" d="M184.55 158.296h-5.091v14.722h5.091c3.777 0 6.844-3.3 6.844-7.361 0-4.074-3.067-7.361-6.844-7.361zm5.045 21.106 13.408 20.008h-11.547l-11.997-19.711v19.711h-9.537v-48.897h16.408c8.081 0 14.628 6.549 14.628 14.628 0 6.951-4.858 12.775-11.363 14.261z" data-color="1"></path>
        <path fill="#008C4E" d="M132.498 52.869 173.82 76.79c3.175 1.834 6.357 5.811 6.357 11.041 0 5.311-3.177 9.2-6.357 11.042l-56.632 32.791v-14.721l50.275-29.111-27.021-15.64v22.08l-12.716 7.36.002-46.004c0-1.129.589-2.184 1.593-2.76a3.166 3.166 0 0 1 3.177 0z" data-color="1"></path>
        <path fill="#ffffff" d="m229.949 39.697-5.265 7.139 1.25.89 2.588-3.567c1.379-1.829 2.495-2.23 3.745-1.338 1.116.848 1.116 1.65.045 3.123l-3.12 4.237 1.247.892 3.255-4.46c.669-.894.939-1.518.984-2.187.043-.891-.446-1.873-1.338-2.497-.893-.627-1.654-.76-2.81-.49l.621-.848-1.202-.895zm-158.37 10.93 2.364-1.697c1.873-1.338 2.856-2.586 3.303-4.37.532-2.054.176-4.105-1.117-5.89-1.292-1.873-3.123-2.944-5.22-3.078-1.785-.176-3.345.356-5.219 1.694l-2.409 1.698 8.298 11.643zm.445-2.142-6.556-9.233 1.114-.804c2.99-2.141 6.247-1.694 8.21 1.114 2.007 2.767 1.337 6.022-1.607 8.121l-1.161.802zm150.963-13.07c-2.229-1.338-5.083-.668-6.421 1.561-1.339 2.184-.669 5.04 1.56 6.424 2.276 1.384 5.083.715 6.47-1.563 1.338-2.23.669-5.04-1.609-6.421zm-.758 1.202c1.609.937 2.008 2.768 1.028 4.417-.982 1.651-2.855 2.098-4.416 1.162-1.518-.937-1.919-2.81-.937-4.417.98-1.606 2.811-2.099 4.325-1.162zM83.846 27.43l-.757-1.292-6.382 3.701 7.094 12.359 6.426-3.66-.76-1.292-4.998 2.899-2.764-4.864 4.863-2.81-.714-1.293-4.907 2.81-2.095-3.702 4.994-2.856zm132.139 3.526-1.339-.715-4.103 7.853 1.339.712 4.103-7.85zM91.253 29.258l-2.589-5.53-1.426.668 5.93 12.983 1.476-.67-2.588-5.62.222-.536 8.03 3.525 2.007-.894-9.456-4.06 3.3-8.833-1.962.894-2.944 8.073zm119.601.58 1.427.67.626-1.25-1.427-.712 1.381-2.902-1.381-.624-1.384 2.9-.803-.402-.623 1.25.846.401-3.258 6.737 1.384.67 3.212-6.738zm-5.664-4.015-.447 1.16c-.447-1.248-1.162-2.008-2.318-2.498-2.278-.936-4.685.225-5.667 2.723-1.025 2.497-.09 5.04 2.184 5.93 1.205.494 2.233.448 3.435-.221l-.487 1.161 1.426.533 3.3-8.207-1.426-.58zm-3.124.046c1.649.624 2.318 2.318 1.606 4.058-.76 1.873-2.363 2.676-4.015 2.007-1.56-.623-2.186-2.363-1.429-4.191.669-1.695 2.366-2.5 3.838-1.874zm-96.004-1.296c2.008-.936 2.811-2.853 2.096-4.951-.444-1.205-1.426-2.142-2.54-2.452-.937-.268-1.965-.134-3.483.402l-2.183.757 4.684 13.471 1.514-.535-2.049-5.886.401-.137 6.111 4.508 1.83-.67-6.381-4.507zm89.313-1.87c-.669-.806-1.384-1.296-2.366-1.563-2.589-.803-5.129.535-5.887 3.077-.805 2.5.581 5.04 3.122 5.801.982.31 1.739.31 2.989-.046l.581-1.916c-1.293.8-2.144.98-3.257.623-1.606-.492-2.497-2.275-1.962-4.015.535-1.785 2.272-2.767 3.969-2.232 1.025.314 1.606.894 2.23 2.232l.581-1.962zm-72.583-.046 2.588 3.522 1.694-.401-9.77-13.07-2.853 16.105 1.695-.401.711-4.328 5.935-1.427zm94.619 4.015c-.535-.268-1.204-.091-1.469.444a1.047 1.047 0 0 0 .445 1.472c.535.268 1.204.091 1.469-.444.27-.535.094-1.204-.445-1.472zm-32.432-7.854-1.473-.355-2.095 8.61 1.471.356 2.097-8.61zm-5.576.448 2.187.49.313-1.382-2.23-.492.71-3.346c.315-1.56.669-1.917 1.608-1.74.311.091.536.134.937.402l.314-1.473c-.448-.267-.67-.356-1.117-.444-1.694-.358-2.722.49-3.169 2.586l-.757 3.747-.803-.177-.311 1.381.846.18-1.515 7.315 1.472.268 1.515-7.315zm-5.043-2.99-1.469-.222-1.473 8.744 1.516.268 1.426-8.79zm-5.484.535 1.606.225.179-1.43-1.606-.176.399-3.212-1.469-.18-.405 3.167-.934-.088-.179 1.384.937.133-.98 7.407 1.515.176.937-7.406zm-23.643-6.378c-1.563-.891-2.768-1.16-4.374-1.026-4.058.31-7.136 3.97-6.78 8.03.313 4.015 3.924 7.002 7.985 6.692 1.517-.133 2.855-.715 4.148-1.74l-.179-1.965c-1.247 1.384-2.54 2.054-4.104 2.187-3.211.268-5.976-2.14-6.289-5.353-.268-3.212 2.141-6.11 5.264-6.378 1.607-.135 2.991.31 4.46 1.514l-.131-1.961zm15.521 4.684-.711 8.879 1.514.088.359-4.64c.177-2.095.758-2.9 2.008-2.81.31.046.492.089.845.356l.852-1.292c-.536-.356-.852-.447-1.339-.493-.805-.088-1.204.137-2.098.982l.091-.936-1.521-.134zm-57.101 8.924-1.694-4.863.891-.314c1.962-.67 3.3-.222 3.839 1.293.578 1.651-.137 2.856-2.099 3.57l-.937.314zm53.668-4.909.045-.268c0-2.81-1.649-4.684-4.149-4.73-2.543-.042-4.371 1.877-4.416 4.553-.046 2.808 1.694 4.773 4.282 4.773 1.831.043 3.121-.715 4.149-2.455l-1.292-.757c-.849 1.381-1.561 1.874-2.769 1.828-1.602 0-2.719-1.204-2.764-3.033l6.914.089zm-35.466 2.232-4.684 1.114 1.024-6.112 3.66 4.998zm28.686-3.616a2.675 2.675 0 0 1 2.63-2.23c1.296 0 2.321.937 2.589 2.32l-5.219-.09zm34.796-3.434c-.581-.134-1.161.222-1.338.803-.134.58.222 1.159.803 1.293.581.133 1.204-.223 1.338-.803a1.075 1.075 0 0 0-.803-1.293zm-10.977-2.543c-.575-.088-1.156.313-1.245.894-.093.624.311 1.159.892 1.248.578.133 1.159-.268 1.247-.892.091-.58-.313-1.162-.894-1.25z" clip-rule="evenodd" fill-rule="evenodd" data-color="2"></path>
        <path fill="#008C4E" d="m147.214 247.45 3.66.133.134-3.163-3.705-.134.225-4.821c.088-2.363.444-3.075 1.652-3.032.623.045.891.179 2.092.848l.182-3.437c-.982-.49-1.475-.578-2.274-.623-1.518-.088-3.079.492-3.884 1.426-.713.803-1.026 1.965-1.114 3.882l-.225 5.621-1.201-.046-.137 3.169 1.207.046-.447 11.464 3.346.134.489-11.467zm-7.315-3.3-3.346-.445-1.873 14.543 3.346.446 1.873-14.544zm26.812 10.214 7.361-12.937-13.964 2.455.533 3.121 7.361-1.29-7.361 12.936 15.169-2.677-.536-3.124-8.563 1.516zm-10.795-10.57-3.345.179.669 14.631 3.386-.177-.71-14.633zm-24.762 2.007 2.544.533.668-3.076-2.585-.581 1.114-5.219-3.301-.714-1.116 5.222-1.381-.268-.669 3.076 1.426.315-2.409 11.194 3.3.717 2.409-11.199zm48.047-6.29-3.258.982 4.329 14.007 3.214-1.028-4.285-13.961zm-61.563-.538-4.505 13.964 3.212 1.028 2.363-7.227c.892-2.722 2.099-3.702 3.881-3.121.67.177 1.026.487 1.563 1.247l2.452-2.451c-.891-1.029-1.426-1.433-2.409-1.743-1.25-.399-2.141-.265-3.747.626l.402-1.25-3.212-1.073zm81.239.985-.359-.715c-.757-1.785-1.874-3.123-3.081-3.926-1.782-1.159-4.237-1.25-6.421-.222-3.881 1.739-5.177 5.709-3.212 9.948 1.919 4.238 5.8 5.844 9.77 4.061 1.694-.763 3.078-2.101 3.747-3.662.447-.891.624-1.603.76-3.123l-3.257-.265c-.313 2.543-.848 3.522-2.409 4.239-1.965.892-3.927.089-5.089-2.007l9.551-4.328zm-88.153 4.772.355-.715c.849-1.696 1.251-3.388 1.071-4.818-.222-2.138-1.739-4.102-3.881-5.173-3.793-1.874-7.671-.356-9.77 3.792-2.053 4.15-.846 8.207 3.033 10.126 1.652.847 3.571 1.068 5.222.624.98-.225 1.649-.536 2.899-1.339l-1.831-2.719c-2.184 1.338-3.3 1.561-4.815.803-1.965-.985-2.589-2.992-1.652-5.222l9.369 4.641zm87.037-13.739 7.939 12.267 2.81-1.831-4.103-6.376c-1.561-2.411-1.561-3.972 0-4.999.623-.399 1.068-.487 2.008-.399l-.402-3.483c-1.339.048-1.965.225-2.856.806-1.068.715-1.515 1.472-1.874 3.257l-.714-1.115-2.808 1.873zm-111.976 3.613 14.454-3.661-11.421-8.384-1.87 2.544 6.022 4.462-14.454 3.61 12.4 9.144 1.874-2.583-7.005-5.132zm102.607 7.094c-.315-1.697.447-3.169 1.963-3.882 1.56-.714 3.075-.313 4.191 1.069l-6.154 2.813zm-85.653-3.97c1.113-1.295 2.765-1.654 4.237-.94 1.561.758 2.23 2.185 1.829 3.971l-6.066-3.031zm36.491-2.007c-1.159-.134-2.275.712-2.455 1.874-.133 1.247.715 2.363 1.966 2.494 1.158.182 2.272-.712 2.451-1.916a2.203 2.203 0 0 0-1.962-2.452zm14.631-.094c-1.202.048-2.141 1.117-2.096 2.278a2.242 2.242 0 0 0 2.321 2.141 2.3 2.3 0 0 0 2.096-2.363c-.089-1.205-1.071-2.145-2.321-2.056zm21.236-3.522c-1.113.358-1.783 1.608-1.426 2.722a2.204 2.204 0 0 0 2.765 1.469c1.159-.353 1.785-1.603 1.427-2.765-.357-1.156-1.561-1.825-2.766-1.426zm36.671-7.273 2.095-1.649-2.007-2.499-2.05 1.654-3.346-4.15-2.634 2.097 3.346 4.191-1.116.891 2.007 2.455 1.074-.894 7.227 8.97 2.631-2.142-7.227-8.924z" clip-rule="evenodd" fill-rule="evenodd" data-color="1"></path>
    </g>
</svg>