<svg preserveAspectRatio="xMidYMid meet" xmlns="http://www.w3.org/2000/svg" width="200" height="200" viewBox="20 31.499 159.999 137.001" role="presentation" aria-hidden="true">
    <title>BBTor icon</title>
    <g fill="#141414">
        <path d="M178.851 81.888c-.466.693-.623.988-.836 1.233-1.177 1.357-1.181 1.353-1.095 3.293l-2.587 1.135c-.757 2.919-.757 2.919 1.861 5.503-.035.939-.635 1.572-1.485 2.328-1.143.016-2.471.051-3.8.051-29.116.003-58.233.002-87.349.002-17.849 0-35.698 0-53.547-.002-1.004 0-2.008-.037-3.011-.027-.76.008-1.24-.464-1.661-.972-.182-.219-.281-.624-.218-.901.12-.531.241-1.185.609-1.517 1.427-1.288.969-2.791.865-4.344l-3.216-1.09c-.313-.926.368-1.84-.334-2.639-.486-.554-1.211-.964-1.371-1.75.25-.189.408-.413.567-.413 51.65-.032 103.3-.049 154.949-.06.418.002.835.084 1.659.17z"></path>
        <path d="M20.284 162.907c.431-.115.844-.298 1.266-.325.889-.057 1.784-.039 2.676-.039 50.432-.001 100.865-.002 151.297.003 1.113 0 2.227.043 3.338.114.479.031.834.369.928.828.27 1.318.308 2.658-.056 3.956-.097.344-.547.674-.912.837-.388.174-.868.18-1.31.192-1.115.029-2.231.026-3.347.026-49.54.001-99.079.002-148.619-.005-1.448 0-2.897-.063-4.343-.139-.574-.03-1.058-.536-1.095-1.074-.097-1.429-.248-2.865.177-4.374z"></path>
        <path d="M98.74 35.712c.237-.374.506-.733.698-1.128.085-.175.014-.425.014-.734-.685-.441-1.422-.907-2.147-1.393-.065-.044-.106-.252-.062-.306.117-.144.377-.376.421-.346 1.101.767 2.391-.654 3.459.305l1.826-.611c.449.336.21.652-.028.822-.713.508-1.469.956-2.206 1.427-.184.951-.494 1.9-.508 2.853-.01.644-.045 1.322.017 1.933.086.837.596 1.624-.128 2.406-.216 1.791-.146 3.443.974 5.07 1.189 1.726 2.009 3.705 3.001 5.568.306.575.651 1.13.945 1.637 1.206-.15 1.642-.923 1.99-1.745.345-.815.548-1.697.958-2.475.166-.315.694-.523 1.093-.604.235-.048.732.202.781.4.293 1.184.556 2.399-.554 3.374-.162.142-.358.336-.383.527-.194 1.438-.19 2.839.899 3.964 1.081-.263 1.589-.99 1.951-1.815.357-.811.555-1.696.957-2.48.169-.329.66-.569 1.052-.679.23-.064.749.151.806.339.352 1.178.618 2.4-.49 3.363-.485.422-.594.955-.495 1.498.24 1.309.555 2.605.846 3.904.094.42.336.835-.07 1.345-.241-.175-.476-.368-.732-.529-.933-.587-1.756-.407-2.213.484a3.512 3.512 0 00-.234.623c-.267.915.2 1.59 1.107 1.59 1.776 0 3.551-.015 5.327-.013.669.001 1.339.014 2.006.053.793.046 1.281.463 1.302 1.217.058 2.111.085 4.223.086 6.334.001 1.667-.038 3.334-.096 4.999-.021.599-.485 1.033-1.072 1.066-.778.044-1.559.067-2.339.067-11.712.004-23.424.006-35.136-.003-.984-.001-1.968-.087-2.847-.128-.211-.34-.413-.517-.425-.706-.25-4.104-.095-8.206-.109-12.045.526-.791 1.086-.84 1.643-.855 1.003-.027 2.008-.008 3.011-.05.539-.023 1.074-.132 1.724-.217.095-.532.253-.949.226-1.354-.082-1.239.078-2.424.448-3.614.228-.733.259-1.529.358-2.299.073-.565.034-1.118-.457-1.513-1.04-.835-.845-1.972-.757-3.073.038-.473.333-.918.797-.905.394.011.941.241 1.134.551.401.645.672 1.391.887 2.127.295 1.008.859 1.785 1.692 2.397.329.242 1.02.046 1.107-.358.188-.867.355-1.739.502-2.613.078-.462-.091-.854-.438-1.187-1.035-.994-.842-2.185-.517-3.39.083-.308.85-.517 1.154-.332.607.37.981.924 1.117 1.592.203 1 .513 1.921 1.253 2.67.412.417 1.157.449 1.43-.037.543-.969 1.037-1.965 1.575-2.937.807-1.459 1.696-2.876 2.436-4.368.83-1.672.704-3.429.107-5.152-.102-.295-.411-.518-.624-.774.628-.111 1.012-.576.843-1.107-.27-.847.607-1.955-.587-2.565-.085-.047-.201-.045-.306-.065zm-9.833 27.337c.017-.984-.414-1.645-1.332-1.975a.92.92 0 00-.606.015c-.734.305-1.131 1.297-.914 2.197.133.548.758.908 1.547.889.769-.017 1.294-.471 1.305-1.126zm13.933.921c.014-.769-.484-1.037-.997-1.236-.712-.277-1.424-.65-2.233-.306-.599.255-1.275.384-1.523 1.126-.146.438.406.739 1.565.712 1.067-.025 2.184.266 3.188-.296zm4.944-2.221c-.491.574-.39 1.227-.173 1.833.071.198.471.324.742.379.085.017.331-.296.347-.471.065-.758.1-1.536-.916-1.741zm.375-3.138c-.104-.152-.183-.399-.317-.432-.168-.041-.395.064-.57.156-.342.18-.331.496-.184.781.227.441.531.148.753-.004.151-.102.215-.329.318-.501zm-16.291 3.193c-.193.579-.344.867-.365 1.164-.012.171.187.358.291.537.12-.165.336-.329.338-.496.003-.302-.122-.605-.264-1.205zm.817-3.268c-.157-.096-.308-.21-.477-.276-.04-.015-.144.135-.218.209.163.103.321.218.495.296.027.012.131-.148.2-.229z"></path>
        <path d="M164.059 99.383c3.215-.357 7.172-.326 9.771.077.019.287.074.596.055.9-.079 1.214-.272 2.427-.263 3.639.088 11.666.188 23.332.329 34.997.059 4.887.227 9.773.334 14.66.025 1.116.121 2.206.503 3.275.173.485.127 1.048.193 1.698-.657.142-1.181.327-1.715.36-3.355.207-8.578.05-10.633-.284-.355-.406-.17-.842-.006-1.225.627-1.465.759-3.001.78-4.567.213-16.218.436-32.435.65-48.653.019-1.55.002-3.1.002-4.877z"></path>
        <path d="M53.294 99.208c2.369-.11 4.365-.066 6.357-.057 1.107.005 2.213.085 3.319.147.09.005.174.131.214.163.116 9.464.213 18.89.352 28.315.093 6.33.251 12.659.366 18.989.026 1.443.017 2.888-.018 4.331-.098 4.034-.106 4.033 1.381 7.475-.258.13-.521.377-.786.38-3.565.033-7.13.035-10.695.031-.328 0-.701-.026-.972-.18-.247-.141-.485-.453-.543-.728-.063-.299.055-.652.15-.964.783-2.587 1.016-5.231.755-7.908-.217-2.222-.18-4.424.023-6.648.192-2.098.193-4.215.216-6.325.077-7.109.113-14.218.194-21.326.033-2.887.142-5.773.215-8.659.06-2.299.319-4.598-.528-7.036z"></path>
        <path d="M79.548 99.341c.574-.09.896-.183 1.218-.184 2.566-.008 5.132-.004 7.698.014.205.001.409.13.783.257.256 1.005-.076 2.101-.062 3.175.162 12.009.269 24.02.417 36.029.03 2.445.191 4.889.257 7.334.042 1.556.067 3.115.014 4.67-.147 4.298-.165 4.297 1.079 7.904-.249.13-.511.385-.775.387-3.457.035-6.914.047-10.37.028-.415-.002-.829-.22-1.328-.362 0-.741-.042-1.391.008-2.034.137-1.771.424-3.538.454-5.31.276-16.122.514-32.244.749-48.366.016-1.105-.086-2.211-.142-3.542z"></path>
        <path d="M137.99 99.389c3.133-.374 7.225-.339 9.63.087-.018 8.738.115 17.482.27 26.227.128 7.211.266 14.421.38 21.632.028 1.775.015 3.551-.036 5.325-.052 1.807.113 3.541 1.151 5.103.161.242.134.608.195.917-2.532.452-9.551.467-12.291.039-.408-.313-.408-.754-.361-1.199.676-6.519.816-13.056.851-19.607.057-10.651.3-21.301.464-31.951.017-1.11.077-2.221.035-3.328-.041-1.084-.188-2.164-.288-3.245z"></path>
        <path d="M39.172 158.637c-2.043.443-6.84.601-11.32.351-.522-.029-1.035-.217-1.588-.339.054-.471.035-.811.137-1.11.796-2.347.948-4.76.946-7.222-.004-6.547.046-13.095.141-19.642.122-8.434.311-16.867.468-25.3.019-.999.044-1.998.021-2.997-.022-.971-.103-1.94-.158-2.895 2.522-.442 6.324-.467 9.327-.081.419.351.233.784.205 1.215a33.164 33.164 0 00-.081 2.656c.206 13.983.427 27.966.628 41.949.032 2.219.023 4.44-.043 6.657-.061 2.03.134 3.983 1.121 5.807.147.274.134.633.196.951z"></path>
        <path d="M123.61 158.687c-.357.109-.669.286-.982.289-3.231.023-6.461.022-9.692.014-.329-.001-.662-.075-.987-.143-.486-.1-.822-.422-.822-.902 0-1.107.057-2.214.123-3.32.146-2.436.372-4.869.453-7.307.089-2.663.023-5.33.073-7.995.138-7.327.321-14.653.449-21.98.081-4.663.096-9.328.137-13.992.006-.666.002-1.333-.026-1.998-.027-.633-.091-1.264-.138-1.884 2.702-.427 6.466-.442 9.465-.048.051.272.164.573.155.871-.03.995-.167 1.989-.153 2.981.21 14.99.44 29.979.657 44.969a51.424 51.424 0 01-.054 3.663c-.114 2.035.107 3.985 1.14 5.795.152.268.134.631.202.987z"></path>
        <path d="M175.02 67.775c-.529 1.15-.916 2.175-1.456 3.113-.491.853-1.147 1.612-1.846 2.571l-.252 3.919c-.515.681-1.097.634-1.64.636-3.233.014-6.466.013-9.698.014-10.367.001-20.735.001-31.102-.001-.892 0-1.784-.003-2.675-.036-.795-.029-1.303-.45-1.31-1.197-.024-2.664-.013-5.328.019-7.992.007-.596.485-1.006 1.092-1.043.667-.04 1.336-.059 2.003-.059 14.938-.003 29.876-.003 44.813.001.643-.001 1.285.045 2.052.074z"></path>
        <path d="M29.327 78.027c-.084-.808-.189-1.246-.164-1.677.098-1.714-.023-3.318-1.553-4.491-.323-.248-.489-.739-.652-1.148-.362-.91-.675-1.839-1.065-2.916.717-.047 1.256-.114 1.794-.113 15.504.019 31.007.044 46.511.081.196 0 .391.165.741.323.07.32.241.737.242 1.155.005 2.763.185 5.533-.098 8.09-.529.724-1.113.664-1.656.681-.78.025-1.561.015-2.342.015H29.327z"></path>
        <path d="M98.328 36.097l-.113 2.753c-.858-.954-.636-1.864.113-2.753z"></path>
        <path d="M102.24 37.818c-.064-.053-.175-.102-.182-.162-.008-.076.068-.16.108-.241l.311.274-.237.129z"></path>
    </g>
</svg>