<svg preserveAspectRatio="xMidYMid meet" viewBox="0 0.772 224.939 92.35" height="50" width="119.7" role="presentation" aria-hidden="true">
    <g>
        <path fill="#1D1D1B" d="M42.88 38.41c-1.344-.649-2.468-.772-4.686-.772h-1.438c-.126 0-.312.063-.312.341v15.707c0 .739.47 1.111 1.312 1.111h1.03c2.5 0 7.313-.462 7.313-8.719 0-3.848-.937-6.47-3.219-7.668zm3.28 16.66c-1.593.988-3.468 1.42-6.499 1.42h-9.403c-.28 0-.438-.124-.438-.337v-.74c0-.279.094-.526.563-.526h.312c1 0 1.344-.523 1.344-2.031V39.579c0-1.51-.344-2.033-1.344-2.033h-.312c-.469 0-.563-.247-.563-.524v-.553c0-.341.094-.525.563-.525h9.373c2.501 0 4.563.341 6.03 1.048 3.188 1.573 5.063 4.896 5.063 9.116 0 4.097-1.72 7.27-4.688 8.963v-.001zm16.692-8.684-2.25-7.915c-.03-.155-.094-.37-.25-.37s-.217.246-.249.37l-2.405 7.915c-.032.124-.095.278-.095.402 0 .153.157.213.438.213h4.47c.28 0 .436-.06.436-.213 0-.124-.063-.278-.094-.402zm8.25 10.104h-7.186c-.282 0-.439-.124-.439-.339v-.738c0-.342.345-.495.5-.526l.314-.03c.531-.094.687-.369.687-.74 0-.278-.189-.83-.313-1.324l-1.06-3.756a.756.756 0 0 0-.22-.402c-.126-.03-.25-.06-.532-.06h-5.25c-.249 0-.374.03-.5.06a.818.818 0 0 0-.218.431l-1.124 3.727c-.157.494-.313 1.046-.313 1.324 0 .371.156.646.688.74l.312.03c.218.031.5.184.5.526v.738c0 .215-.157.339-.437.339h-5.093c-.282 0-.44-.124-.44-.339v-.709c0-.247.064-.524.471-.555l.28-.03c.594-.094 1.062-.645 1.407-1.633l5.156-15.646c.592-1.849.812-1.973 1.75-1.973h3.03c.781 0 1.062.279 1.562 2.065l4.75 15.617c.343 1.014.874 1.476 1.406 1.57l.28.03c.407.031.47.308.47.555v.71c0 .214-.157.338-.438.338zm17.785 0h-3.22c-.623 0-.843-.03-1.092-.491l-4.53-6.841c-.437-.617-.376-.77-.782-.77h-.124c-.094 0-.28.093-.28.37v4.097c0 1.51.341 2.032 1.341 2.032h.157c.468 0 .563.248.563.526v.739c0 .214-.157.338-.437.338h-7.468c-.283 0-.438-.124-.438-.338v-.74c0-.277.155-.525.563-.525h.312c1 0 1.344-.491 1.344-2.032V38.718c0-1.45-.314-2.125-1.22-2.125h-.436a.529.529 0 0 1-.563-.525v-.555c0-.244.155-.523.563-.523h4.186c.624 0 .687-.094 1.03-.094h.157c.156 0 .345.063.345.278v11.674c0 .277.156.371.281.371h.626c.28 0 .467-.154.686-.37l3.592-3.636c.157-.153.345-.338.345-.552 0-.123-.094-.278-.22-.278l-.437-.03c-.343-.033-.53-.188-.53-.525v-.522c0-.247.095-.526.562-.526h4.563c.404 0 .56.279.56.526v.552c0 .218-.156.43-.56.525l-.502.091c-.624.093-1.093.46-1.968 1.325l-2.686 2.65c-.157.155-.282.276-.282.429 0 .123.063.218.155.341l4.502 6.436c.342.492.873 1.232 1.342 1.232.408 0 .563.279.563.526v.552a.525.525 0 0 1-.563.525zm18.223 0h-3.22c-.623 0-.843-.03-1.092-.491l-4.532-6.841c-.435-.617-.374-.77-.78-.77h-.126c-.092 0-.279.093-.279.37v4.097c0 1.51.342 2.032 1.342 2.032h.157c.467 0 .563.248.563.526v.739c0 .214-.157.338-.438.338h-7.467c-.282 0-.437-.124-.437-.338v-.74c0-.277.155-.525.561-.525h.314c1 0 1.343-.491 1.343-2.032V38.718c0-1.45-.313-2.125-1.22-2.125h-.437a.527.527 0 0 1-.56-.525v-.555c0-.244.154-.523.56-.523h4.188c.624 0 .687-.094 1.03-.094h.157c.155 0 .345.063.345.278v11.674c0 .277.155.371.28.371h.626c.28 0 .468-.154.687-.37l3.592-3.636c.157-.153.345-.338.345-.552 0-.123-.094-.278-.22-.278l-.437-.03c-.343-.033-.531-.188-.531-.525v-.522c0-.247.095-.526.563-.526h4.562c.405 0 .562.279.562.526v.552c0 .218-.157.43-.562.525l-.501.091c-.625.093-1.093.46-1.968 1.325l-2.686 2.65c-.157.155-.282.276-.282.429 0 .123.062.218.155.341l4.501 6.436c.342.492.874 1.232 1.343 1.232.407 0 .562.279.562.526v.552a.527.527 0 0 1-.562.525h-.001zm7.911.278c-3.688 0-5.687-.833-5.687-1.727V52.27c0-.402.312-.556.532-.556h.78c.22 0 .375.185.5.585.44 1.416 1.064 2.835 3.97 2.835 2.343 0 3.593-1.077 3.593-2.924 0-1.296-.376-2.189-1.938-3.173l-3.437-2.065c-1.968-1.172-3.625-2.494-3.625-5.546 0-3.601 2.189-5.727 7.219-5.727 3.249 0 5.218.83 5.218 1.724v2.71a.527.527 0 0 1-.532.557h-.812c-.343 0-.376-.218-.469-.556-.123-.8-.531-2.804-3.53-2.804-2.406 0-3.343 1.172-3.343 2.74 0 1.697.686 2.313 2.124 3.143l3.062 1.694c1.905 1.077 3.936 2.095 3.936 5.977 0 4.157-2.937 5.884-7.56 5.884h-.001zM99.319 69.39c0-.53-.066-1.02-.199-1.477a3.17 3.17 0 0 0-.624-1.18 2.905 2.905 0 0 0-1.076-.78c-.432-.183-.992-.276-1.676-.276h-1.34v7.598h1.354c.634 0 1.17-.079 1.601-.233.417-.145.79-.392 1.087-.719.292-.32.51-.723.654-1.21.146-.485.22-1.059.22-1.724v.001zm1.386-.055c0 .846-.111 1.585-.329 2.215-.22.632-.54 1.156-.96 1.57a3.985 3.985 0 0 1-1.55.934c-.613.204-1.344.308-2.19.308h-2.098a.573.573 0 0 1-.334-.115c-.103-.078-.156-.218-.156-.414v-8.71c0-.196.053-.332.156-.41a.548.548 0 0 1 .334-.118h2.244c.856 0 1.58.113 2.173.33.593.22 1.09.534 1.488.945.402.407.706.906.913 1.489.205.584.31 1.242.31 1.976h-.001zm6.477.779c.015-.655-.132-1.169-.443-1.54-.31-.374-.771-.557-1.383-.557-.313 0-.587.057-.824.171a1.77 1.77 0 0 0-.593.462 2.099 2.099 0 0 0-.37.666c-.086.254-.136.52-.146.798h3.759zm1.271.368c0 .196-.052.338-.15.42a.518.518 0 0 1-.342.124h-4.538c0 .377.038.719.115 1.02.078.301.205.561.385.776.18.218.413.383.7.498.287.117.638.176 1.053.176.328 0 .621-.028.878-.079a5.502 5.502 0 0 0 1.126-.357.816.816 0 0 1 .273-.079.18.18 0 0 1 .097.028c.028.015.05.042.066.079a.54.54 0 0 1 .033.148c.021.175.015.353-.016.527a.346.346 0 0 1-.107.187c-.028.028-.11.073-.247.136a3.556 3.556 0 0 1-.536.184c-.22.062-.474.116-.762.164-.304.05-.613.074-.922.073-.566 0-1.063-.08-1.49-.237a2.735 2.735 0 0 1-1.075-.694c-.29-.304-.51-.69-.659-1.153-.149-.465-.221-1.001-.221-1.615 0-.586.075-1.108.229-1.572.154-.468.373-.86.662-1.187a2.896 2.896 0 0 1 1.045-.745c.434-.18.9-.27 1.37-.263.542 0 1.003.087 1.382.257a2.588 2.588 0 0 1 1.477 1.71c.115.39.174.808.174 1.248v.226zm7.809 3.692a.172.172 0 0 1-.123.172.604.604 0 0 1-.18.046 1.93 1.93 0 0 1-.271.014c-.118 0-.214-.003-.289-.014a.57.57 0 0 1-.175-.046.174.174 0 0 1-.088-.07.224.224 0 0 1-.022-.102v-.9c-.394.429-.781.74-1.165.936-.383.196-.77.297-1.164.297-.459 0-.846-.076-1.16-.228-.3-.14-.561-.35-.76-.615a2.493 2.493 0 0 1-.419-.906c-.085-.344-.125-.763-.125-1.256v-4.12a.19.19 0 0 1 .026-.103c.017-.028.054-.05.104-.076a.787.787 0 0 1 .199-.044 3.92 3.92 0 0 1 .613 0 .71.71 0 0 1 .194.044.28.28 0 0 1 .104.076c.02.028.03.06.03.102v3.955c0 .396.03.716.087.954.06.24.15.444.269.614.12.165.272.298.456.392.183.09.398.138.643.138.316 0 .632-.111.945-.33.314-.225.648-.548.999-.976V67.38c0-.042.01-.074.027-.102a.265.265 0 0 1 .103-.076.824.824 0 0 1 .194-.044c.206-.016.413-.016.618 0a.682.682 0 0 1 .192.044c.045.025.08.048.103.076.022.028.035.06.035.102v6.794zm5.901-.498c0 .145-.011.26-.032.348a.377.377 0 0 1-.09.187.62.62 0 0 1-.184.114 1.64 1.64 0 0 1-.28.085c-.11.024-.221.044-.333.058a2.996 2.996 0 0 1-.353.023c-.356 0-.661-.048-.917-.138a1.517 1.517 0 0 1-.629-.423 1.74 1.74 0 0 1-.356-.719 4.193 4.193 0 0 1-.111-1.023v-3.97h-.964c-.077 0-.138-.04-.184-.12-.045-.079-.069-.212-.069-.393 0-.094.007-.176.02-.242a.688.688 0 0 1 .05-.16.176.176 0 0 1 .08-.09.242.242 0 0 1 .11-.027h.957v-1.615c0-.035.01-.07.027-.1a.237.237 0 0 1 .098-.078.71.71 0 0 1 .196-.05c.082-.01.185-.013.308-.013.127 0 .232.003.313.014a.602.602 0 0 1 .192.05c.045.022.08.047.098.076.02.031.032.064.032.1v1.616h1.768c.041 0 .077.01.107.026a.206.206 0 0 1 .08.092.48.48 0 0 1 .05.159c.011.066.016.148.016.242 0 .181-.024.314-.07.393-.045.08-.106.12-.183.12h-1.768v3.789c0 .468.07.82.21 1.062.14.24.392.357.754.357.118 0 .223-.01.314-.034.092-.02.174-.045.246-.071.072-.025.133-.05.183-.07a.317.317 0 0 1 .138-.037c.025 0 .049.006.072.022a.126.126 0 0 1 .054.07 1.277 1.277 0 0 1 .05.37zm5.995-1.352c0 .348-.066.658-.197.93-.13.27-.313.501-.555.685-.24.187-.523.33-.856.422-.356.1-.725.15-1.096.145a4.44 4.44 0 0 1-1.298-.2 3.881 3.881 0 0 1-.447-.18 1.318 1.318 0 0 1-.268-.172.436.436 0 0 1-.122-.211 1.381 1.381 0 0 1-.038-.368c0-.098.005-.18.014-.243a.88.88 0 0 1 .04-.16c.015-.038.036-.069.064-.084a.187.187 0 0 1 .095-.026c.057 0 .14.032.25.102.11.066.244.142.404.22.162.081.353.157.573.223.217.07.47.104.757.104.215 0 .41-.025.582-.07.172-.046.324-.113.451-.2a.893.893 0 0 0 .295-.335 1.06 1.06 0 0 0 .103-.483.756.756 0 0 0-.15-.483 1.35 1.35 0 0 0-.394-.347 3.108 3.108 0 0 0-.55-.268c-.204-.079-.416-.16-.632-.245a7.928 7.928 0 0 1-.637-.29 2.43 2.43 0 0 1-.553-.398 1.758 1.758 0 0 1-.395-.558 1.83 1.83 0 0 1-.15-.776c0-.27.053-.523.158-.767.105-.246.262-.459.47-.64.21-.185.47-.332.784-.445a3.386 3.386 0 0 1 1.1-.165 3.718 3.718 0 0 1 1.05.161c.147.044.273.092.378.146.105.051.183.098.236.14a.391.391 0 0 1 .109.105c.017.03.03.063.037.103.008.036.016.082.024.14.014.141.014.284 0 .425a.486.486 0 0 1-.04.154.175.175 0 0 1-.064.086.137.137 0 0 1-.084.028c-.046 0-.112-.028-.2-.085a3.53 3.53 0 0 0-.823-.352 2.165 2.165 0 0 0-.638-.085 2.015 2.015 0 0 0-.566.072 1.055 1.055 0 0 0-.403.206.865.865 0 0 0-.317.703c0 .197.05.362.152.495.104.133.236.25.399.35.164.103.35.194.56.271.208.082.421.164.638.252.216.084.43.181.642.286.214.105.4.232.563.383.165.152.295.333.394.544.1.21.15.464.15.755h.001zm6.76.815c0 .088-.003.16-.008.224a.788.788 0 0 1-.026.16.492.492 0 0 1-.047.11.672.672 0 0 1-.123.146c-.063.06-.17.139-.324.232a3.317 3.317 0 0 1-.518.251c-.191.072-.398.13-.622.175-.226.045-.457.07-.698.07-.494 0-.933-.082-1.317-.241a2.501 2.501 0 0 1-.961-.708 3.207 3.207 0 0 1-.59-1.138 5.488 5.488 0 0 1-.202-1.561c0-.666.083-1.243.248-1.723.167-.48.393-.875.682-1.181.29-.308.627-.534 1.017-.682.39-.151.814-.222 1.269-.222a3.54 3.54 0 0 1 1.209.216c.174.066.327.142.462.227.137.087.235.16.297.22.06.06.102.11.125.142a.648.648 0 0 1 .09.287c.004.06.006.135.006.226 0 .196-.022.335-.068.414-.047.074-.103.115-.17.115-.076 0-.164-.04-.264-.124-.12-.1-.246-.191-.378-.275a2.728 2.728 0 0 0-.557-.275 2.121 2.121 0 0 0-.768-.127c-.607 0-1.072.233-1.397.692-.323.461-.486 1.129-.486 2.004 0 .438.04.822.125 1.151.085.328.209.603.372.827.165.22.364.386.6.495.239.105.51.16.818.16.29 0 .545-.046.765-.136.22-.09.409-.19.569-.297a5.92 5.92 0 0 0 .406-.295c.11-.088.196-.133.257-.133.036 0 .066.013.093.03.03.028.052.064.064.103.017.048.03.108.037.181.008.073.013.16.013.26zm7.594 1.035a.17.17 0 0 1-.031.102.195.195 0 0 1-.099.07.625.625 0 0 1-.191.046 2.42 2.42 0 0 1-.306.014c-.127 0-.233-.003-.315-.014a.657.657 0 0 1-.191-.046.215.215 0 0 1-.099-.07.184.184 0 0 1-.031-.102v-3.978c0-.387-.03-.697-.091-.937a1.87 1.87 0 0 0-.268-.609 1.134 1.134 0 0 0-.456-.392 1.45 1.45 0 0 0-.647-.136c-.316 0-.633.108-.95.332-.317.22-.647.546-.996.972v4.748a.168.168 0 0 1-.03.102.205.205 0 0 1-.1.07.625.625 0 0 1-.191.046c-.08.011-.187.014-.314.014-.122 0-.224-.003-.305-.014a.69.69 0 0 1-.196-.046.209.209 0 0 1-.1-.07.214.214 0 0 1-.026-.102V64.092c0-.043.01-.076.025-.107a.21.21 0 0 1 .1-.075.755.755 0 0 1 .197-.045c.101-.013.203-.018.305-.016.127 0 .234.004.314.016.082.01.146.025.191.045.047.018.08.046.1.075a.18.18 0 0 1 .03.107v4.065c.364-.377.728-.657 1.096-.84a2.458 2.458 0 0 1 1.11-.276c.46 0 .846.079 1.16.232.313.152.568.357.761.614.195.256.333.558.417.902.085.343.127.76.127 1.25v4.135zm6.898-4.06c.017-.655-.131-1.169-.441-1.54-.311-.374-.772-.557-1.384-.557-.313 0-.588.057-.824.171a1.77 1.77 0 0 0-.593.462c-.16.19-.282.413-.37.666-.086.254-.137.52-.146.798h3.758zm1.272.368c0 .196-.052.338-.15.42a.518.518 0 0 1-.342.124h-4.538c0 .377.038.719.115 1.02.078.301.205.561.385.776.179.218.413.383.7.498.287.117.638.176 1.053.176.328 0 .621-.028.878-.079.225-.046.446-.106.663-.18a5.45 5.45 0 0 0 .463-.177.816.816 0 0 1 .273-.079.18.18 0 0 1 .097.028.148.148 0 0 1 .066.079.538.538 0 0 1 .033.148c.021.175.015.353-.016.527a.277.277 0 0 1-.038.1.307.307 0 0 1-.068.087c-.029.028-.11.073-.248.136a3.556 3.556 0 0 1-.536.184c-.22.062-.473.116-.762.164-.304.05-.613.074-.922.073-.566 0-1.064-.08-1.49-.237a2.736 2.736 0 0 1-1.076-.694 2.94 2.94 0 0 1-.658-1.153c-.15-.465-.221-1.001-.221-1.615 0-.586.075-1.108.229-1.572a3.33 3.33 0 0 1 .661-1.187 2.896 2.896 0 0 1 1.046-.745c.434-.18.9-.27 1.37-.263.542 0 1.003.087 1.383.257a2.59 2.59 0 0 1 1.476 1.71c.114.39.174.808.174 1.248v.226zM96.242 81.9h-.008l-1.708 4.868h3.447l-1.73-4.868zm4.264 8.009c.041.108.063.2.065.267.003.067-.016.12-.057.155a.385.385 0 0 1-.204.066 3.145 3.145 0 0 1-.378.016c-.158 0-.285-.003-.38-.013a.858.858 0 0 1-.214-.035.25.25 0 0 1-.108-.073.62.62 0 0 1-.064-.113l-.85-2.378h-4.119l-.81 2.349a.417.417 0 0 1-.062.117.308.308 0 0 1-.113.082.726.726 0 0 1-.205.048c-.09.013-.206.016-.348.016-.15 0-.27-.006-.366-.019-.092-.012-.16-.035-.199-.072-.037-.033-.055-.084-.053-.153a.975.975 0 0 1 .066-.27l3.322-9.07a.43.43 0 0 1 .08-.137.345.345 0 0 1 .146-.082 1.16 1.16 0 0 1 .245-.041c.262-.017.524-.017.785 0 .108.009.195.02.26.041a.316.316 0 0 1 .154.088c.035.036.065.08.085.138l3.322 9.073zm7.15.261a.175.175 0 0 1-.031.106.2.2 0 0 1-.104.076.626.626 0 0 1-.202.045 2.481 2.481 0 0 1-.33.015 3.512 3.512 0 0 1-.34-.012.965.965 0 0 1-.225-.036.408.408 0 0 1-.15-.076.596.596 0 0 1-.103-.117l-2.91-3.76v3.77c0 .036-.01.07-.03.101a.216.216 0 0 1-.1.07.582.582 0 0 1-.191.045 2.224 2.224 0 0 1-.314.015c-.122 0-.225-.003-.305-.015a.647.647 0 0 1-.196-.045.21.21 0 0 1-.1-.07.213.213 0 0 1-.026-.102V80.097a.21.21 0 0 1 .025-.106.205.205 0 0 1 .1-.075.755.755 0 0 1 .197-.045 2.03 2.03 0 0 1 .305-.016c.127 0 .232.003.314.016.081.01.146.025.191.045.047.018.08.046.1.075.02.031.03.064.03.106v6.143l2.603-2.822a.612.612 0 0 1 .13-.124.768.768 0 0 1 .165-.085c.064-.021.14-.035.226-.044a4.5 4.5 0 0 1 .636 0c.086.009.155.02.21.038.054.016.091.04.115.067.024.031.036.07.034.108a.376.376 0 0 1-.05.182.985.985 0 0 1-.164.21l-2.495 2.461 2.802 3.586c.053.066.1.136.14.209.03.05.043.1.043.145v-.001zm7.112 0a.174.174 0 0 1-.03.106.2.2 0 0 1-.104.076.626.626 0 0 1-.202.045 2.481 2.481 0 0 1-.33.015 3.553 3.553 0 0 1-.342-.012.96.96 0 0 1-.224-.036.408.408 0 0 1-.15-.076.594.594 0 0 1-.102-.117l-2.91-3.76v3.77c0 .036-.01.07-.03.101a.216.216 0 0 1-.1.07.586.586 0 0 1-.192.045 2.24 2.24 0 0 1-.313.015 2.2 2.2 0 0 1-.306-.015.647.647 0 0 1-.196-.045.21.21 0 0 1-.1-.07.213.213 0 0 1-.026-.102V80.097a.2.2 0 0 1 .026-.106.205.205 0 0 1 .1-.075.746.746 0 0 1 .196-.045c.08-.013.183-.016.306-.016.127 0 .232.003.313.016.082.01.146.025.192.045.047.018.08.046.1.075.019.031.03.064.03.106v6.143l2.602-2.822a.612.612 0 0 1 .13-.124.768.768 0 0 1 .165-.085c.065-.021.14-.035.226-.044.212-.016.425-.016.637 0 .086.009.155.02.21.038.053.016.09.04.114.067.024.03.036.069.035.108a.376.376 0 0 1-.05.182.954.954 0 0 1-.165.21l-2.495 2.461 2.802 3.586c.053.066.1.136.141.209.029.05.043.1.043.145l-.001-.001zm5.48-6.339c0 .112-.002.206-.007.282a.759.759 0 0 1-.03.177.232.232 0 0 1-.06.096c-.021.025-.053.034-.093.034a.394.394 0 0 1-.151-.034c-.058-.02-.124-.045-.2-.066a1.634 1.634 0 0 0-.546-.096 1.013 1.013 0 0 0-.375.076 1.47 1.47 0 0 0-.387.25 3.182 3.182 0 0 0-.424.46c-.149.192-.31.424-.49.702v4.467c0 .04-.011.073-.03.104a.23.23 0 0 1-.1.07.676.676 0 0 1-.192.044 2.225 2.225 0 0 1-.313.016c-.123 0-.226-.003-.306-.016a.746.746 0 0 1-.196-.045.217.217 0 0 1-.1-.07.217.217 0 0 1-.026-.103v-6.791c0-.042.008-.076.022-.104a.226.226 0 0 1 .093-.074.593.593 0 0 1 .175-.046 3.35 3.35 0 0 1 .563 0 .504.504 0 0 1 .173.046c.04.023.07.048.088.074a.182.182 0 0 1 .026.104v.987a5.31 5.31 0 0 1 .532-.664 2.87 2.87 0 0 1 .472-.402c.149-.099.293-.165.439-.206a1.89 1.89 0 0 1 .44-.057c.251.003.5.044.739.12a.672.672 0 0 1 .158.077c.03.027.05.05.061.072a.76.76 0 0 1 .04.241c.004.07.006.161.006.275h-.001zm5.842 2.289c.016-.656-.131-1.169-.442-1.54-.31-.374-.771-.558-1.383-.558-.313 0-.588.057-.824.172a1.77 1.77 0 0 0-.593.462 2.099 2.099 0 0 0-.37.666c-.086.254-.137.52-.146.798h3.758zm1.272.368c0 .196-.052.338-.15.42a.518.518 0 0 1-.342.124h-4.538c0 .377.038.718.114 1.02.079.301.206.56.386.776.179.218.413.383.7.497.286.118.638.176 1.053.176.328 0 .621-.027.878-.078a5.502 5.502 0 0 0 1.126-.357.818.818 0 0 1 .273-.08c.035 0 .069.01.097.029.028.015.05.041.066.078a.546.546 0 0 1 .033.149c.021.175.015.353-.016.527a.346.346 0 0 1-.107.187c-.028.028-.11.073-.247.136a3.556 3.556 0 0 1-.536.184 7.18 7.18 0 0 1-.763.164c-.304.05-.612.073-.921.072-.566 0-1.064-.078-1.49-.236a2.736 2.736 0 0 1-1.076-.694 2.954 2.954 0 0 1-.658-1.153c-.15-.465-.221-1.002-.221-1.615 0-.586.075-1.109.229-1.572.153-.469.373-.861.661-1.187a2.896 2.896 0 0 1 1.046-.745c.434-.18.9-.27 1.37-.263.541 0 1.002.087 1.382.257a2.588 2.588 0 0 1 1.477 1.71c.114.39.174.807.174 1.248v.226zm6.553-1.087c-.342-.417-.673-.734-.993-.953a1.744 1.744 0 0 0-.999-.33c-.321 0-.592.076-.818.226a1.757 1.757 0 0 0-.549.598 2.9 2.9 0 0 0-.306.836c-.062.314-.094.63-.094.95 0 .346.025.678.079 1.007.053.326.147.615.28.872.134.253.31.456.529.61.22.153.494.23.826.23.345.003.682-.099.966-.293.163-.107.332-.244.513-.411.178-.169.367-.377.566-.625v-2.717zm1.271 4.78a.2.2 0 0 1-.028.104.17.17 0 0 1-.092.073.713.713 0 0 1-.171.039 1.591 1.591 0 0 1-.26.015c-.107 0-.197-.003-.269-.015a.819.819 0 0 1-.175-.039.203.203 0 0 1-.1-.073.204.204 0 0 1-.03-.105v-.9c-.364.39-.74.692-1.131.906-.39.217-.817.327-1.281.327-.506 0-.938-.098-1.295-.291a2.46 2.46 0 0 1-.869-.785 3.488 3.488 0 0 1-.486-1.162 6.367 6.367 0 0 1-.152-1.41c0-.583.064-1.11.191-1.578.127-.472.317-.873.566-1.206.25-.33.56-.587.93-.766.37-.178.798-.268 1.283-.268.403 0 .771.087 1.105.261.336.174.667.43.993.765v-3.946c0-.037.01-.07.026-.103.018-.033.054-.057.104-.074.05-.019.116-.034.194-.047a2.633 2.633 0 0 1 .618 0 .93.93 0 0 1 .191.047c.041.014.077.04.102.074.023.03.035.066.036.103v10.054zm3.568-.001a.17.17 0 0 1-.032.102.204.204 0 0 1-.098.07.623.623 0 0 1-.192.046c-.081.01-.186.014-.313.014-.123 0-.226-.003-.308-.014a.717.717 0 0 1-.196-.046.2.2 0 0 1-.098-.07.202.202 0 0 1-.027-.102v-6.793a.214.214 0 0 1 .027-.099.218.218 0 0 1 .098-.076c.05-.018.116-.032.196-.045a2.86 2.86 0 0 1 .308-.015c.127 0 .232.006.313.015.066.008.13.023.192.045.045.022.08.045.098.076.02.03.032.063.032.099v6.793zm.146-9.087c0 .29-.057.489-.17.595-.111.105-.318.16-.62.16-.296 0-.5-.052-.61-.154-.107-.106-.162-.3-.162-.585 0-.294.056-.493.168-.599.11-.105.318-.156.62-.156.295 0 .5.051.607.153.112.104.167.3.167.586zm8.727 0c0 .29-.057.489-.168.595-.112.106-.32.16-.621.16-.295 0-.499-.051-.61-.153-.108-.107-.163-.3-.163-.586 0-.294.056-.493.168-.598.113-.105.318-.158.62-.158.295 0 .5.053.609.155.11.102.165.298.165.585zm-.544 2.098c.153 0 .257.034.315.103.056.067.083.166.083.296v6.59c0 .036-.01.072-.03.102a.208.208 0 0 1-.104.07.669.669 0 0 1-.195.046 2.5 2.5 0 0 1-.298.014c-.127 0-.234-.003-.314-.014a.69.69 0 0 1-.196-.046.217.217 0 0 1-.103-.07.193.193 0 0 1-.03-.102v-5.957h-3.561v3.79c0 .467.07.82.21 1.062.142.238.392.357.754.357.12 0 .223-.01.315-.034.091-.022.173-.045.245-.073.072-.023.134-.048.183-.07a.34.34 0 0 1 .138-.035c.027 0 .049.006.073.02.022.013.04.037.053.07.036.12.053.246.05.372 0 .144-.01.26-.03.344a.401.401 0 0 1-.092.187.57.57 0 0 1-.184.119 1.43 1.43 0 0 1-.28.083c-.109.025-.22.044-.332.057a2.698 2.698 0 0 1-.352.025 2.72 2.72 0 0 1-.919-.14 1.51 1.51 0 0 1-.629-.421c-.163-.19-.28-.43-.355-.719a4.144 4.144 0 0 1-.11-1.023v-3.97h-.965c-.078 0-.14-.04-.185-.121-.045-.08-.069-.21-.069-.393 0-.093.007-.175.02-.241a.807.807 0 0 1 .05-.16.174.174 0 0 1 .08-.09.228.228 0 0 1 .11-.028h.959v-1.614c0-.035.008-.07.025-.1a.258.258 0 0 1 .1-.08.746.746 0 0 1 .196-.047c.08-.012.184-.016.306-.016.127 0 .232.004.314.016.081.01.145.028.19.048.046.025.08.05.101.079.019.03.03.063.03.1v1.614h4.433zm7.35 2.929c.016-.656-.132-1.169-.442-1.54-.31-.374-.772-.558-1.383-.558-.314 0-.588.057-.825.172a1.77 1.77 0 0 0-.593.462c-.16.19-.282.413-.369.666-.087.254-.137.52-.147.798h3.759zm1.271.368c0 .196-.05.338-.15.42a.523.523 0 0 1-.342.124h-4.538c0 .377.038.718.116 1.02.077.301.204.56.385.776.178.218.412.383.699.497.288.118.638.176 1.054.176.327 0 .62-.027.878-.078.387-.08.765-.2 1.127-.357a.81.81 0 0 1 .271-.08c.035 0 .069.01.097.029a.147.147 0 0 1 .066.078.544.544 0 0 1 .033.149c.021.175.015.353-.016.527a.259.259 0 0 1-.037.1.33.33 0 0 1-.07.087 1.114 1.114 0 0 1-.246.136 3.642 3.642 0 0 1-.537.184c-.22.062-.473.116-.762.164-.304.05-.612.073-.921.072-.567 0-1.064-.078-1.49-.236a2.736 2.736 0 0 1-1.076-.694 2.968 2.968 0 0 1-.659-1.153c-.149-.465-.22-1.002-.22-1.615 0-.586.074-1.109.228-1.572a3.33 3.33 0 0 1 .662-1.187 2.896 2.896 0 0 1 1.046-.745c.434-.18.9-.27 1.37-.263.54 0 1.002.087 1.382.257a2.59 2.59 0 0 1 1.476 1.71c.115.39.174.807.174 1.248v.226zm5.934-2.657c0 .112-.004.206-.009.282a.759.759 0 0 1-.03.177.22.22 0 0 1-.06.096c-.02.025-.052.034-.093.034a.39.39 0 0 1-.15-.034c-.059-.02-.125-.045-.2-.066a1.634 1.634 0 0 0-.546-.096 1.014 1.014 0 0 0-.376.076 1.474 1.474 0 0 0-.386.25 3.14 3.14 0 0 0-.424.46c-.15.192-.31.424-.49.702v4.467a.2.2 0 0 1-.03.104.242.242 0 0 1-.1.07.694.694 0 0 1-.193.044 2.225 2.225 0 0 1-.313.016c-.123 0-.226-.003-.306-.016a.746.746 0 0 1-.196-.045.217.217 0 0 1-.1-.07.206.206 0 0 1-.025-.103v-6.791c0-.042.007-.076.022-.104a.214.214 0 0 1 .092-.074.599.599 0 0 1 .176-.046 3.35 3.35 0 0 1 .563 0 .505.505 0 0 1 .172.046.239.239 0 0 1 .088.074.181.181 0 0 1 .026.104v.987a5.5 5.5 0 0 1 .532-.664c.166-.17.323-.305.473-.402.148-.099.293-.165.438-.206.147-.035.293-.057.44-.057.251.003.5.044.739.12a.672.672 0 0 1 .158.077.26.26 0 0 1 .062.072.787.787 0 0 1 .04.241c.003.07.005.161.005.275h.001zm7.324 6.349a.19.19 0 0 1-.028.102.176.176 0 0 1-.093.07.609.609 0 0 1-.181.046c-.073.01-.165.014-.27.014a2.11 2.11 0 0 1-.29-.014.56.56 0 0 1-.175-.046.174.174 0 0 1-.089-.07.224.224 0 0 1-.021-.102v-.9c-.394.429-.781.74-1.165.936a2.53 2.53 0 0 1-1.164.296c-.46 0-.847-.075-1.16-.227a2.037 2.037 0 0 1-.76-.615c-.2-.27-.343-.579-.42-.906a5.465 5.465 0 0 1-.125-1.256v-4.121c0-.042.01-.074.027-.102a.26.26 0 0 1 .103-.076.802.802 0 0 1 .2-.045 3.92 3.92 0 0 1 .613 0c.08.01.146.025.194.045.05.025.084.048.104.076.02.028.03.06.03.102v3.955c0 .396.03.716.087.954.06.24.15.443.268.613.121.166.274.299.457.393.184.09.398.138.642.138.317 0 .632-.112.946-.331.313-.224.648-.547.999-.975v-4.747c0-.042.01-.074.026-.102a.269.269 0 0 1 .104-.076.82.82 0 0 1 .194-.045 4.01 4.01 0 0 1 .618 0c.082.01.147.025.191.045a.346.346 0 0 1 .104.076c.022.028.034.06.034.102v6.793zm8.253 0a.17.17 0 0 1-.031.102.196.196 0 0 1-.099.07.625.625 0 0 1-.191.046c-.082.01-.184.014-.306.014-.127 0-.233-.003-.315-.014a.657.657 0 0 1-.191-.046.215.215 0 0 1-.099-.07.184.184 0 0 1-.031-.102v-3.978c0-.387-.03-.698-.091-.937a1.874 1.874 0 0 0-.268-.61 1.134 1.134 0 0 0-.456-.392 1.449 1.449 0 0 0-.647-.136c-.316 0-.633.108-.95.333-.317.22-.647.545-.996.972v4.748a.168.168 0 0 1-.03.102.2.2 0 0 1-.1.07.625.625 0 0 1-.191.046 2.51 2.51 0 0 1-.314.014c-.122 0-.224-.003-.305-.014a.69.69 0 0 1-.196-.046.209.209 0 0 1-.1-.07.226.226 0 0 1-.025-.102v-6.793a.224.224 0 0 1 .021-.102.233.233 0 0 1 .093-.076.64.64 0 0 1 .175-.045 3.32 3.32 0 0 1 .564 0c.074.01.13.025.172.045.04.025.07.048.088.076.017.028.026.06.026.102v.898c.387-.427.775-.74 1.16-.94.386-.2.775-.298 1.169-.298.459 0 .845.079 1.158.232.314.151.569.357.762.613.195.257.333.558.417.903.085.343.127.757.127 1.24v4.145z" clip-rule="evenodd" fill-rule="evenodd" data-color="1"></path>
        <mask height="11" width="8" y="83" x="178" maskUnits="userSpaceOnUse" style="mask-type:alpha" id="svgcid-vdy29c9lfigc" fill="none">
            <path fill="#ffffff" d="M178.742 83.062h6.523v10.06h-6.523v-10.06z"></path>
        </mask>
        <g mask="url(#svgcid-vdy29c9lfigc)">
            <path fill="#1D1D1B" d="M183.289 85.486c0-.466-.129-.824-.387-1.084-.257-.26-.624-.39-1.098-.39-.246 0-.458.042-.64.121-.18.082-.33.193-.453.332-.119.144-.209.31-.266.489-.06.18-.088.374-.088.576 0 .447.128.801.386 1.058.258.256.619.383 1.083.383.25 0 .467-.039.65-.114a1.21 1.21 0 0 0 .455-.327c.123-.139.211-.3.269-.48.06-.181.089-.368.089-.564zm.636 5.378a.75.75 0 0 0-.364-.672c-.242-.16-.57-.244-.984-.254l-1.784-.06a3.2 3.2 0 0 0-.403.359 2.047 2.047 0 0 0-.248.323c-.113.186-.168.4-.16.617 0 .326.168.573.505.741.337.169.808.254 1.409.254.382 0 .703-.036.96-.111.259-.073.466-.169.624-.29a1.08 1.08 0 0 0 .34-.414c.07-.157.105-.32.105-.493zm1.34-7.168c0 .177-.026.304-.074.383-.047.076-.11.114-.187.114h-.988c.18.181.303.384.375.602.072.22.107.446.107.681 0 .393-.064.74-.191 1.042-.127.301-.31.558-.547.767a2.513 2.513 0 0 1-.846.48 3.417 3.417 0 0 1-1.088.166 2.894 2.894 0 0 1-.8-.108c-.252-.076-.448-.167-.584-.279-.092.09-.169.196-.228.311a.874.874 0 0 0-.088.399c0 .177.083.323.25.437.166.118.387.178.661.19l1.8.076c.342.01.656.057.943.14.285.084.531.202.741.355.21.151.372.341.491.565.118.223.176.483.176.782 0 .311-.066.606-.2.89-.133.28-.335.528-.609.743a2.988 2.988 0 0 1-1.044.503c-.423.124-.924.187-1.5.187-.555 0-1.031-.047-1.422-.14-.39-.091-.71-.218-.96-.38-.23-.14-.417-.34-.543-.578a1.608 1.608 0 0 1-.168-.727c0-.167.02-.33.061-.484a1.67 1.67 0 0 1 .187-.446c.084-.14.19-.275.313-.402.126-.13.27-.257.433-.384a1.345 1.345 0 0 1-.555-.473 1.162 1.162 0 0 1-.179-.62c0-.307.064-.582.191-.823a2.82 2.82 0 0 1 .474-.65 2.29 2.29 0 0 1-.375-.627 2.37 2.37 0 0 1-.137-.851c0-.387.066-.733.198-1.042.134-.305.317-.564.553-.776.233-.21.515-.374.845-.485.33-.115.689-.172 1.075-.172.21 0 .405.01.585.036.183.021.353.05.511.094h2.082c.087 0 .15.042.195.123.044.084.066.21.066.38" clip-rule="evenodd" fill-rule="evenodd" data-color="1"></path>
        </g>
        <path fill="#1D1D1B" d="M191.214 88.33c0 .347-.066.658-.196.93-.13.27-.313.5-.556.685-.24.187-.523.329-.856.422-.357.1-.726.15-1.096.145a4.43 4.43 0 0 1-1.298-.2 3.828 3.828 0 0 1-.447-.18 1.335 1.335 0 0 1-.268-.172.424.424 0 0 1-.122-.212 1.342 1.342 0 0 1-.038-.368c0-.097.005-.179.014-.242a.804.804 0 0 1 .04-.16.155.155 0 0 1 .065-.084.177.177 0 0 1 .094-.027c.057 0 .14.033.25.102.11.067.245.143.404.221.162.08.353.156.573.223.218.07.47.103.757.103.215 0 .41-.024.582-.07.172-.045.324-.112.451-.198a.901.901 0 0 0 .295-.336c.072-.151.107-.317.103-.484a.765.765 0 0 0-.15-.482 1.377 1.377 0 0 0-.394-.348 3.172 3.172 0 0 0-.55-.267c-.204-.079-.415-.16-.632-.246a7.626 7.626 0 0 1-.636-.289 2.382 2.382 0 0 1-.554-.399 1.745 1.745 0 0 1-.394-.558c-.1-.214-.15-.474-.15-.775 0-.27.053-.523.157-.767.105-.246.262-.46.47-.64.211-.185.471-.332.784-.445a3.383 3.383 0 0 1 1.1-.166c.185 0 .368.016.551.045.184.031.35.07.499.116.148.045.273.093.378.147.105.051.183.097.236.14a.413.413 0 0 1 .109.104c.017.031.03.064.037.104.024.112.036.226.035.341 0 .087-.005.16-.011.223a.552.552 0 0 1-.04.155.182.182 0 0 1-.064.086.142.142 0 0 1-.084.028c-.046 0-.112-.028-.2-.085a3.544 3.544 0 0 0-.823-.352 2.17 2.17 0 0 0-.638-.085 2.007 2.007 0 0 0-.566.072 1.041 1.041 0 0 0-.403.206.863.863 0 0 0-.317.703c0 .196.051.362.153.495.103.133.235.25.398.35.164.102.35.194.56.27.208.083.421.165.638.253.216.083.43.18.643.286.213.105.4.232.563.383.165.152.295.332.394.544.1.21.15.464.15.754v.001zm6.132 0c0 .347-.066.658-.196.93-.13.27-.313.5-.555.685a2.45 2.45 0 0 1-.856.422c-.357.1-.726.15-1.096.145a4.43 4.43 0 0 1-1.298-.2 3.828 3.828 0 0 1-.447-.18 1.322 1.322 0 0 1-.268-.172.425.425 0 0 1-.123-.212 1.342 1.342 0 0 1-.037-.368c0-.097.004-.179.014-.242a.881.881 0 0 1 .039-.16.162.162 0 0 1 .064-.084.185.185 0 0 1 .096-.027c.056 0 .14.033.25.102.109.067.244.143.404.221.161.08.353.156.572.223.219.07.47.103.757.103.215 0 .41-.024.582-.07.173-.045.325-.112.452-.198a.892.892 0 0 0 .294-.336c.072-.15.108-.317.104-.484a.765.765 0 0 0-.15-.482 1.377 1.377 0 0 0-.394-.348 3.172 3.172 0 0 0-.55-.267c-.204-.079-.416-.16-.632-.246a7.53 7.53 0 0 1-.636-.289 2.382 2.382 0 0 1-.554-.399 1.762 1.762 0 0 1-.395-.558 1.796 1.796 0 0 1-.15-.775c0-.27.053-.523.157-.767.105-.246.262-.46.47-.64a2.43 2.43 0 0 1 .785-.445 3.383 3.383 0 0 1 1.1-.166c.184 0 .367.016.55.045.184.031.35.07.5.116.147.045.272.093.378.147.104.051.183.097.236.14a.397.397 0 0 1 .108.104c.017.031.03.064.038.104.024.112.035.226.034.341 0 .087-.004.16-.01.223a.552.552 0 0 1-.04.155.182.182 0 0 1-.064.086.142.142 0 0 1-.085.028c-.045 0-.111-.028-.2-.085a3.544 3.544 0 0 0-.823-.352 2.166 2.166 0 0 0-.637-.085 2.007 2.007 0 0 0-.566.072 1.041 1.041 0 0 0-.403.206.844.844 0 0 0-.239.31.949.949 0 0 0-.078.393c0 .196.05.362.152.495.103.133.235.25.398.35.165.102.35.194.56.27.209.083.422.165.639.253.216.083.43.18.642.286.213.105.4.232.563.383.165.153.299.338.393.544.102.21.151.464.151.754v.001zm5.214 1.352c0 .145-.011.26-.032.348a.376.376 0 0 1-.09.187.646.646 0 0 1-.184.114 1.697 1.697 0 0 1-.28.085c-.11.024-.222.043-.333.057a2.996 2.996 0 0 1-.353.023c-.356 0-.662-.047-.917-.137a1.507 1.507 0 0 1-.629-.424 1.737 1.737 0 0 1-.356-.718 4.152 4.152 0 0 1-.11-1.024v-3.969h-.965c-.077 0-.138-.04-.184-.12-.045-.08-.069-.212-.069-.393 0-.094.007-.176.019-.243a.636.636 0 0 1 .05-.159.172.172 0 0 1 .08-.09.239.239 0 0 1 .111-.027h.958v-1.615a.195.195 0 0 1 .025-.1.232.232 0 0 1 .1-.078.702.702 0 0 1 .195-.05 2.65 2.65 0 0 1 .308-.014c.127 0 .232.004.313.014.082.01.146.028.191.05.046.023.08.048.1.077a.18.18 0 0 1 .03.1v1.616h1.77c.04 0 .076.01.106.026a.203.203 0 0 1 .08.091.52.52 0 0 1 .05.16c.01.066.016.148.016.242 0 .18-.024.314-.07.393-.045.08-.106.12-.183.12h-1.768v3.789c0 .468.07.82.21 1.061.14.24.392.357.754.357.117 0 .223-.009.313-.034.093-.02.174-.044.247-.07.072-.025.133-.05.184-.07a.308.308 0 0 1 .137-.037.131.131 0 0 1 .126.091c.034.12.051.245.05.371zm6.109-3.562c.017-.656-.132-1.169-.441-1.54-.311-.374-.772-.558-1.384-.558-.314 0-.588.057-.825.172-.229.11-.43.267-.592.462-.16.19-.283.413-.37.666-.087.254-.137.52-.146.798h3.758zm1.272.368c0 .196-.052.338-.15.42a.522.522 0 0 1-.343.124h-4.537c0 .377.037.718.115 1.02.078.301.205.56.385.776.179.218.412.383.7.497.287.118.637.176 1.053.176.328 0 .62-.027.878-.078.224-.046.446-.106.663-.18.157-.052.311-.111.463-.177a.809.809 0 0 1 .273-.08c.034 0 .068.01.097.029.03.017.053.045.066.078a.583.583 0 0 1 .033.149c.02.175.015.353-.016.527a.35.35 0 0 1-.107.187c-.028.028-.11.073-.247.136a3.646 3.646 0 0 1-.537.184c-.22.062-.472.116-.762.164a5.59 5.59 0 0 1-.922.072c-.566 0-1.063-.078-1.49-.236a2.722 2.722 0 0 1-1.075-.694 2.954 2.954 0 0 1-.658-1.153c-.15-.465-.221-1.002-.221-1.615 0-.586.075-1.109.228-1.572a3.33 3.33 0 0 1 .662-1.187 2.887 2.887 0 0 1 1.046-.745c.433-.18.9-.27 1.37-.263.541 0 1.002.087 1.382.257a2.596 2.596 0 0 1 1.477 1.71c.114.39.174.807.174 1.248v.226zm3.184 3.692a.184.184 0 0 1-.031.102.197.197 0 0 1-.1.07.632.632 0 0 1-.19.046c-.082.01-.186.014-.314.014-.122 0-.226-.003-.307-.014a.7.7 0 0 1-.196-.046.197.197 0 0 1-.1-.07.193.193 0 0 1-.026-.102V80.098c0-.043.01-.076.027-.107a.203.203 0 0 1 .099-.076.773.773 0 0 1 .196-.044c.081-.013.185-.016.307-.016.128 0 .232.003.313.016a.682.682 0 0 1 .192.044c.046.019.08.047.099.076.02.031.03.064.03.107V90.18h.001zm3.598 0a.184.184 0 0 1-.031.102.2.2 0 0 1-.099.07.632.632 0 0 1-.191.046c-.082.01-.186.014-.314.014-.122 0-.226-.003-.307-.014a.7.7 0 0 1-.196-.046.192.192 0 0 1-.099-.07.193.193 0 0 1-.026-.102V80.098c0-.043.009-.076.026-.107a.203.203 0 0 1 .099-.076.773.773 0 0 1 .196-.044c.081-.013.185-.016.307-.016.128 0 .232.003.314.016a.674.674 0 0 1 .191.044c.046.019.08.047.099.076.02.031.031.064.031.107V90.18zm6.944-4.06c.017-.656-.131-1.169-.441-1.54-.311-.374-.772-.558-1.384-.558-.313 0-.588.057-.825.172-.229.11-.43.267-.592.462a2.06 2.06 0 0 0-.37.666c-.087.254-.137.52-.146.798h3.758zm1.272.368c0 .196-.052.338-.15.42a.522.522 0 0 1-.343.124h-4.537c0 .377.037.718.115 1.02.078.301.205.56.385.776.179.218.412.383.7.497.287.118.637.176 1.053.176.328 0 .62-.027.878-.078a5.521 5.521 0 0 0 1.126-.357.809.809 0 0 1 .273-.08c.034 0 .068.01.097.029.03.017.053.045.066.078a.631.631 0 0 1 .033.149c.02.175.015.353-.016.527a.351.351 0 0 1-.107.187c-.028.028-.11.073-.247.136a3.646 3.646 0 0 1-.537.184c-.22.062-.473.116-.762.164a5.59 5.59 0 0 1-.922.072c-.566 0-1.063-.078-1.49-.236a2.722 2.722 0 0 1-1.075-.694 2.954 2.954 0 0 1-.658-1.153c-.15-.465-.221-1.002-.221-1.615 0-.586.075-1.109.229-1.572.153-.469.373-.861.661-1.187a2.887 2.887 0 0 1 1.046-.745c.433-.18.9-.27 1.37-.263.541 0 1.002.087 1.382.257a2.59 2.59 0 0 1 1.477 1.71c.114.39.174.807.174 1.248v.226z" clip-rule="evenodd" fill-rule="evenodd" data-color="1"></path>
        <path fill="#BBCDD7" d="M64.365 13.327c-9.555-6.28-21.044-5.865-26.389-4.69-5.262 1.155-13.83 3.873-20.878 11.57-.214.24-.414.487-.63.728l-.148.178 3.757 3.068c5.514-6.438 12.667-10.28 18.86-11.755 6.297-1.504 17.143-1.042 25.694 3.84C73.103 20.66 77.51 27.878 77.78 28.11c-.338-.5-3.862-8.497-13.414-14.783z" clip-rule="evenodd" fill-rule="evenodd" data-color="2"></path>
        <mask height="27" width="80" y="0" x="6" maskUnits="userSpaceOnUse" style="mask-type:alpha" id="svgcid--thh8bc4ca0h2" fill="none">
            <path fill="#ffffff" d="M6.46.773h79.374v26.054H6.46V.773z"></path>
        </mask>
        <g mask="url(#svgcid--thh8bc4ca0h2)">
            <path fill="#BBCDD7" d="M12.06 22.737c1.78-2.507 3.039-3.988 3.039-3.988C22.936 9.955 32.839 6.302 38.58 5.312c5.74-.99 18.55-2.22 30.186 4.669 12.054 7.147 16.603 16.03 17.067 16.846-.381-.796-3.436-8.922-13.725-17.141-10.3-8.218-24.602-9.939-34.076-8.411C28.56 2.809 14.146 9.474 6.737 22.018c-.092.164-.18.319-.276.48l4.187 2.389c.447-.732.918-1.449 1.412-2.15" clip-rule="evenodd" fill-rule="evenodd" data-color="2"></path>
        </g>
        <path fill="#BBCDD7" d="M58.438 18.376c-7.845-4.283-16.964-3.263-20.61-2.304-3.643.963-12.325 4.159-17.514 11.638-.327.47-.64.957-.93 1.453-.16.238-.308.476-.456.714l4.24 2.39c3.688-6.552 10.77-10.943 15.733-12.415 5.1-1.508 12.846-1.675 19.72 1.217 6.648 2.638 10.742 7.555 11.057 7.827-.292-.316-3.699-6.402-11.24-10.52zm5.927 59.913c-9.555 6.28-21.044 5.867-26.389 4.692-5.262-1.153-13.83-3.87-20.878-11.575-.214-.233-.414-.484-.63-.725l-.148-.173 3.757-3.071c5.514 6.436 12.667 10.278 18.86 11.755 6.297 1.503 17.143 1.043 25.694-3.84 8.472-4.396 12.878-11.606 13.148-11.84-.338.506-3.862 8.495-13.414 14.777z" clip-rule="evenodd" fill-rule="evenodd" data-color="2"></path>
        <path fill="#BBCDD7" d="M12.06 68.88c1.78 2.51 3.039 3.992 3.039 3.992 7.836 8.793 17.74 12.445 23.48 13.433 5.743.987 18.553 2.22 30.187-4.668 12.055-7.144 16.603-16.024 17.067-16.835-.38.791-3.435 8.912-13.724 17.125-10.3 8.223-24.602 9.943-34.076 8.415-9.473-1.533-23.888-8.203-31.296-20.74-.093-.165-.18-.322-.276-.483l4.186-2.385a38.67 38.67 0 0 0 1.413 2.147" clip-rule="evenodd" fill-rule="evenodd" data-color="2"></path>
        <path fill="#BBCDD7" d="M58.44 73.244c-7.845 4.282-16.964 3.26-20.611 2.305-3.642-.966-12.324-4.165-17.513-11.635-.327-.47-.64-.953-.93-1.453-.16-.235-.308-.476-.456-.714l4.24-2.388c3.688 6.55 10.77 10.938 15.733 12.406 5.099 1.51 12.846 1.677 19.72-1.218C65.27 67.912 69.365 63 69.68 62.727c-.292.316-3.7 6.398-11.24 10.517z" clip-rule="evenodd" fill-rule="evenodd" data-color="2"></path>
        <path fill="#E20714" d="m18.285 26.524-4-2.748c-.054.076-.109.153-.16.235l-.017.023a37.723 37.723 0 0 0-6.807 21.78 37.71 37.71 0 0 0 6.808 21.774l.016.022c.052.08.107.157.16.236l4.001-2.746c-3.895-5.504-6.14-12.172-6.12-19.287-.02-7.114 2.225-13.785 6.12-19.29" clip-rule="evenodd" fill-rule="evenodd" data-color="3"></path>
        <mask height="42" width="10" y="25" x="0" maskUnits="userSpaceOnUse" style="mask-type:alpha" id="svgcid--xyz3zu-sajeks" fill="none">
            <path fill="#ffffff" d="M0 25.5h9.152v40.622H0V25.5z"></path>
        </mask>
        <g mask="url(#svgcid--xyz3zu-sajeks)">
            <path fill="#1D1D1B" d="M8.09 61.773a39.798 39.798 0 0 1-3.227-15.958 39.784 39.784 0 0 1 3.226-15.96l.011-.026c.326-.762.677-1.513 1.052-2.252L4.812 25.5c-.469.92-.903 1.826-1.286 2.734-.015.019-.02.047-.03.072-.048.12-.112.244-.16.367l.002-.01A44.81 44.81 0 0 0 0 45.814a44.809 44.809 0 0 0 3.338 17.148v-.008c.046.12.11.241.157.362.011.03.016.054.031.077.383.906.817 1.811 1.286 2.73l4.34-2.075A37.524 37.524 0 0 1 8.1 61.793l-.01-.02z" clip-rule="evenodd" fill-rule="evenodd" data-color="1"></path>
        </g>
        <path fill="#F7D100" d="M21.34 55.634a25.988 25.988 0 0 1-1.873-9.82c-.02-3.455.65-6.77 1.872-9.822l-.008-.003c.207-.516.43-1.034.676-1.556l-4.445-2.003a30.348 30.348 0 0 0-.853 2.006l-.01-.003c-.045.12-.084.24-.128.358-.016.048-.04.095-.055.144h.002a30.619 30.619 0 0 0-1.912 10.878 30.625 30.625 0 0 0 1.912 10.875h-.002c.016.05.04.093.055.144.044.118.083.243.13.359l.01-.003c.252.66.534 1.335.851 2.006l4.445-2.003a28.87 28.87 0 0 1-.676-1.552l.008-.005z" clip-rule="evenodd" fill-rule="evenodd" data-color="4"></path>
    </g>
</svg>